<svg width="512" height="512" viewBox="0 0 512 512" fill="none" xmlns="http://www.w3.org/2000/svg">
<g clip-path="url(#clip0)">
<rect width="512" height="512" rx="28" fill="#161B22"/>
<path d="M130.062 160H103.906V196.844H63.9688V216.953H103.906V299.641C103.906 309.016 105.125 317.031 107.562 323.688C110.094 330.25 113.516 335.594 117.828 339.719C122.141 343.938 127.203 347.031 133.016 349C138.922 350.875 145.25 351.812 152 351.812C156.031 351.812 160.062 351.625 164.094 351.25C168.219 350.875 172.109 350.312 175.766 349.562C179.422 348.906 182.797 348.109 185.891 347.172C188.984 346.141 191.609 344.969 193.766 343.656L190.109 325.234C188.516 325.609 186.453 326.078 183.922 326.641C181.484 327.109 178.859 327.578 176.047 328.047C173.141 328.516 170.188 328.938 167.188 329.312C164.188 329.594 161.281 329.734 158.469 329.734C154.625 329.734 150.969 329.266 147.5 328.328C144.125 327.391 141.125 325.75 138.5 323.406C135.875 321.156 133.812 318.109 132.312 314.266C130.812 310.422 130.062 305.547 130.062 299.641V216.953H188V196.844H130.062V160ZM287 277.984L342.828 349H375.875L304.859 260.266L366.453 196.844H334.812L284.891 246.906L267.875 265.188V133H241.719V349H267.875V296.406L287 277.984Z" fill="#67A3D8"/>
<path d="M391.75 332.125C391.75 337.562 393.438 342.203 396.812 346.047C400.281 349.797 405.391 351.672 412.141 351.672C418.797 351.672 423.906 349.797 427.469 346.047C431.031 342.297 432.812 337.656 432.812 332.125C432.812 326.5 431.031 321.766 427.469 317.922C424 313.984 418.891 312.016 412.141 312.016C405.297 312.016 400.188 313.984 396.812 317.922C393.438 321.859 391.75 326.594 391.75 332.125Z" fill="#67A3D8"/>
</g>
<defs>
<clipPath id="clip0">
<rect width="512" height="512" fill="white"/>
</clipPath>
</defs>
</svg>
