<svg id="Layer_1" data-name="Layer 1" xmlns="http://www.w3.org/2000/svg" viewBox="0 0 2461.7 1080"><defs><style>.cls-1{fill:#161b22;}.cls-2{fill:#67a3d8;}</style></defs><rect class="cls-1" width="1920" height="1080"/><path class="cls-2" d="M826.88,639.21V471.4H777.22V428h357.63l-38.38,45L876.16,471.4V639.21Z"/><path class="cls-2" d="M954,639.21V428h49.41v85l71.3-85h60.16l-85.76,100.48,99.2,110.72h-68.1l-76.8-86.91v86.91Z"/><rect class="cls-1" x="1949.7" y="3" width="512" height="512"/><path class="cls-2" d="M2069.83,364.6V196.79h-49.66V153.4H2377.8l-38.38,45-220.31-1.58V364.6Z"/><path class="cls-2" d="M2196.93,364.6V153.4h49.41v85l71.3-85h60.16L2292,253.88l99.2,110.72h-68.1l-76.8-86.91V364.6Z"/></svg>